<svg width="61" height="22" viewBox="0 0 61 22" fill="none" xmlns="http://www.w3.org/2000/svg">
<path fill-rule="evenodd" clip-rule="evenodd" d="M33.0814 17.1725C32.8405 17.2701 32.5914 17.3461 32.3371 17.3997C32.1005 17.4498 31.8594 17.4754 31.6176 17.476C31.1297 17.4781 30.6488 17.3608 30.2167 17.1344C29.7427 16.8802 29.3303 16.5252 29.0085 16.0942C28.63 15.588 28.3313 15.0267 28.123 14.4299C27.9226 13.8887 27.7719 13.3303 27.6725 12.7618C27.4963 11.7531 27.4744 10.7234 27.6077 9.70811C27.6644 9.27051 27.7492 8.83701 27.8615 8.41028C28.0239 7.77249 28.2656 7.15758 28.581 6.57996C28.8467 6.0882 29.1991 5.64852 29.6212 5.28213C29.9043 5.04111 30.2272 4.85124 30.5755 4.72101C30.9088 4.59369 31.2627 4.52899 31.6195 4.53015C31.8614 4.53067 32.1026 4.5569 32.339 4.6084C32.5968 4.66402 32.8491 4.74258 33.0929 4.84316C33.1709 4.87191 33.2405 4.91982 33.2952 4.98248C33.3495 5.04778 33.3786 5.13039 33.3773 5.21533C33.3767 5.24608 33.3735 5.27673 33.3677 5.30694C33.3612 5.3373 33.3529 5.36726 33.3429 5.39664C33.3119 5.47071 33.2635 5.53619 33.2017 5.5875C33.137 5.64015 33.056 5.66851 32.9726 5.66766C32.9428 5.67041 32.9128 5.67041 32.8829 5.66766C32.853 5.66296 32.8236 5.65529 32.7952 5.64476C32.6 5.56394 32.3982 5.50009 32.192 5.4539C32.0075 5.41499 31.8195 5.39517 31.6309 5.39473C31.2009 5.39129 30.7801 5.51913 30.4247 5.76118C30.0103 6.05796 29.6678 6.4441 29.4227 6.89105C29.0778 7.47844 28.8207 8.11307 28.6593 8.77482C28.3183 10.2388 28.3183 11.7616 28.6593 13.2256C28.82 13.8858 29.0772 14.5186 29.4227 15.1036C29.6683 15.5502 30.0107 15.9363 30.4247 16.2335C30.7801 16.4756 31.2009 16.6034 31.6309 16.6C31.8196 16.5991 32.0076 16.5786 32.192 16.5389C32.3982 16.4928 32.6 16.429 32.7952 16.348C32.8243 16.3368 32.8543 16.3278 32.8849 16.3213C32.9161 16.314 32.9481 16.3101 32.9803 16.3099C33.064 16.3087 33.1454 16.3379 33.2093 16.3919C33.2718 16.4464 33.3202 16.5152 33.3505 16.5923C33.3608 16.621 33.3691 16.6503 33.3754 16.6801C33.3822 16.7102 33.3854 16.7409 33.3849 16.7717C33.386 16.856 33.3569 16.938 33.3028 17.0027C33.2475 17.0659 33.1773 17.1145 33.0986 17.1439L33.0814 17.1725ZM56.0053 12.4679L54.7666 17.1744C54.7448 17.2687 54.6965 17.3548 54.6273 17.4226C54.5539 17.4894 54.4574 17.525 54.3582 17.5218C54.3223 17.5213 54.2865 17.5174 54.2513 17.5103C54.1536 17.4953 54.0637 17.4484 53.9956 17.3767C53.9639 17.3392 53.9399 17.2958 53.9252 17.2489C53.9105 17.2021 53.9052 17.1527 53.9097 17.1038C53.9078 17.0861 53.9078 17.0681 53.9097 17.0504C53.9125 17.033 53.9163 17.0158 53.9211 16.9989L54.6235 14.2009V14.1856L56.9749 4.83361C56.9962 4.73989 57.0462 4.65516 57.118 4.59123C57.1918 4.52963 57.2835 4.49348 57.3795 4.48816H57.41C57.5033 4.48544 57.5946 4.51587 57.6677 4.57405C57.7388 4.63428 57.7883 4.71601 57.8089 4.80689L60.7882 16.9492C60.7882 16.974 60.7882 16.9989 60.8015 17.0256C60.8034 17.0516 60.8034 17.0778 60.8015 17.1038C60.7981 17.1938 60.7629 17.2796 60.7023 17.3462C60.6399 17.4112 60.5605 17.4574 60.4733 17.4798L60.3969 17.497H60.3206C60.2297 17.4995 60.1415 17.4666 60.0744 17.4054C60.0106 17.3427 59.9656 17.2633 59.9446 17.1763L58.6868 12.4679H56.0053ZM56.2591 11.4774H58.4235L57.3795 6.77272L56.2591 11.4774ZM49.6803 16.5981H53.0279C53.0861 16.5897 53.1454 16.5948 53.2013 16.6131C53.2572 16.6314 53.308 16.6624 53.35 16.7035C53.3919 16.7447 53.4237 16.7951 53.443 16.8506C53.4623 16.9061 53.4685 16.9653 53.4612 17.0237C53.4644 17.082 53.4559 17.1405 53.4363 17.1955C53.4166 17.2506 53.3861 17.3012 53.3467 17.3443C53.3039 17.3837 53.2536 17.4142 53.1989 17.4338C53.1441 17.4535 53.086 17.462 53.0279 17.4588H49.2528C49.2172 17.4592 49.1818 17.4541 49.1478 17.4436C49.1131 17.4345 49.0798 17.421 49.0486 17.4035C48.9794 17.3702 48.9211 17.3179 48.8806 17.2527C48.8398 17.1833 48.8187 17.1041 48.8195 17.0237V4.92523C48.8139 4.86693 48.8212 4.80812 48.841 4.753C48.8608 4.69789 48.8926 4.64783 48.934 4.60642C48.9754 4.56501 49.0254 4.53328 49.0805 4.51349C49.1357 4.49371 49.1945 4.48636 49.2528 4.49198C49.3112 4.48429 49.3707 4.49026 49.4265 4.5094C49.4822 4.52855 49.5328 4.56035 49.5742 4.60233C49.6156 4.6443 49.6468 4.6953 49.6652 4.75132C49.6836 4.80734 49.6888 4.86687 49.6803 4.92523V16.5981ZM45.5826 5.25732C45.0841 5.6662 44.6504 6.14816 44.2962 6.68684C44.0199 7.10849 43.8484 7.59013 43.7962 8.09155C43.7962 8.13163 43.7962 8.16789 43.7962 8.19843V8.31294C43.7944 8.77656 43.9394 9.22884 44.2103 9.60504C44.561 10.064 45.0062 10.4421 45.5158 10.7139C46.1285 11.0475 46.6522 11.5233 47.0426 12.1015C47.3869 12.6421 47.5654 13.2718 47.556 13.9127V14.01C47.5442 14.6641 47.3613 15.3037 47.0255 15.8652C46.6473 16.4693 46.1435 16.9848 45.5482 17.3767C45.5095 17.4037 45.4671 17.425 45.4223 17.4397C45.3789 17.4558 45.333 17.4642 45.2868 17.4645C45.219 17.4642 45.1527 17.4443 45.0959 17.4073C45.0422 17.3717 44.9951 17.3272 44.9566 17.2756V17.2603C44.9347 17.221 44.9156 17.1801 44.8993 17.1382C44.8842 17.0946 44.8764 17.0488 44.8764 17.0027C44.8764 16.9351 44.8956 16.8689 44.9318 16.8118C44.9664 16.7546 45.0125 16.7052 45.0673 16.6668C45.3063 16.5075 45.5277 16.3233 45.7276 16.1171C45.9233 15.9125 46.0961 15.6872 46.243 15.4453C46.3897 15.2063 46.5058 14.9498 46.5884 14.6818C46.6619 14.434 46.6998 14.1769 46.701 13.9184V13.8573C46.6984 13.3873 46.557 12.9285 46.2945 12.5385C45.9784 12.0923 45.5628 11.7257 45.0806 11.4678C44.446 11.126 43.8946 10.6483 43.466 10.0688C43.1058 9.56008 42.9137 8.95152 42.9163 8.32821C42.9163 8.26332 42.9163 8.19461 42.9163 8.11827C42.9642 7.47969 43.1658 6.86219 43.5041 6.31848C43.9121 5.6687 44.4218 5.08872 45.0138 4.60077C45.0511 4.56577 45.0936 4.5368 45.1398 4.51488C45.1872 4.49118 45.2395 4.47876 45.2925 4.47862C45.3595 4.47701 45.4256 4.4942 45.4833 4.52824C45.5375 4.56229 45.5853 4.60557 45.6246 4.65612C45.6587 4.69332 45.6864 4.73588 45.7066 4.78208C45.729 4.83123 45.7407 4.88458 45.741 4.93859C45.7407 5.00028 45.7243 5.06082 45.6933 5.11417C45.6642 5.16689 45.6268 5.21457 45.5826 5.25541V5.25732ZM42.0269 17.0237C42.0305 17.0815 42.0226 17.1394 42.0036 17.1941C41.9846 17.2489 41.9549 17.2993 41.9162 17.3424C41.8743 17.3827 41.8246 17.4138 41.77 17.4338C41.7155 17.4539 41.6574 17.4624 41.5994 17.4588C41.5413 17.462 41.4832 17.4535 41.4284 17.4338C41.3737 17.4142 41.3234 17.3837 41.2807 17.3443C41.2412 17.3012 41.2107 17.2506 41.1911 17.1955C41.1714 17.1405 41.1629 17.082 41.1661 17.0237V4.92523C41.1605 4.86693 41.1679 4.80812 41.1877 4.753C41.2074 4.69789 41.2392 4.64783 41.2806 4.60642C41.322 4.56501 41.3721 4.53328 41.4272 4.51349C41.4823 4.49371 41.5411 4.48636 41.5994 4.49198C41.6579 4.48429 41.7173 4.49026 41.7731 4.5094C41.8289 4.52855 41.8794 4.56035 41.9209 4.60233C41.9623 4.6443 41.9934 4.6953 42.0118 4.75132C42.0302 4.80734 42.0354 4.86687 42.0269 4.92523V17.0237ZM38.4121 10.5479V4.92523C38.4086 4.86756 38.4167 4.80977 38.4361 4.75533C38.4554 4.70089 38.4856 4.65092 38.5247 4.6084C38.5661 4.56809 38.6156 4.5369 38.6698 4.51685C38.7241 4.4968 38.7819 4.48833 38.8396 4.49198C38.8986 4.48297 38.959 4.48795 39.0157 4.50651C39.0725 4.52506 39.1241 4.55668 39.1665 4.59882C39.2088 4.64096 39.2406 4.69245 39.2595 4.74914C39.2783 4.80583 39.2835 4.86614 39.2748 4.92523V17.0237C39.2781 17.0821 39.2697 17.1405 39.25 17.1956C39.2303 17.2507 39.1998 17.3012 39.1602 17.3443C39.1171 17.3838 39.0665 17.4142 39.0115 17.4339C38.9564 17.4536 38.898 17.462 38.8396 17.4588C38.7819 17.4625 38.7241 17.454 38.6698 17.4339C38.6156 17.4139 38.5661 17.3827 38.5247 17.3424C38.4854 17.2996 38.4552 17.2493 38.4359 17.1945C38.4165 17.1397 38.4084 17.0816 38.4121 17.0237V11.4086H34.927V17.0237C34.9307 17.0822 34.9222 17.1409 34.9022 17.1961C34.8822 17.2513 34.851 17.3017 34.8106 17.3443C34.7677 17.3841 34.7171 17.4147 34.662 17.4344C34.6069 17.4541 34.5484 17.4624 34.49 17.4588C34.4326 17.4623 34.3751 17.4538 34.3211 17.4337C34.2672 17.4137 34.2181 17.3826 34.177 17.3424C34.0993 17.255 34.0594 17.1404 34.0663 17.0237V4.92523C34.0579 4.86723 34.0631 4.80809 34.0813 4.75239C34.0994 4.69669 34.1302 4.64593 34.1712 4.60404C34.2122 4.56214 34.2622 4.53025 34.3175 4.51082C34.3728 4.49138 34.4318 4.48494 34.49 4.49198C34.5492 4.48264 34.6097 4.48736 34.6667 4.50577C34.7238 4.52418 34.7756 4.55575 34.8182 4.59793C34.8608 4.64012 34.8928 4.69173 34.9117 4.74859C34.9306 4.80545 34.9358 4.86596 34.927 4.92523V10.5479H38.4121Z" fill="#161A1E" stroke="#161A1E" stroke-width="0.3"/>
<path fill-rule="evenodd" clip-rule="evenodd" d="M11.0082 21C9.67528 20.9977 8.35599 20.7327 7.12604 20.2202C7.05093 20.1921 6.97113 20.1594 6.89132 20.1219C6.81387 20.0868 6.73407 20.0446 6.65661 20.0001C6.25344 19.8362 5.86743 19.6331 5.50418 19.3936C5.10744 19.1331 4.73367 18.8394 4.38695 18.5155L4.08182 18.2205C4.03733 18.1963 4.00007 18.1607 3.97386 18.1175L3.93865 18.0777C3.52735 17.6714 3.15125 17.2312 2.81438 16.7617C2.07815 15.6964 1.54286 14.5061 1.23477 13.2492C1.10525 12.7035 1.02668 12.1469 1.00006 11.5867V11.1183C0.998245 10.547 1.03983 9.97635 1.12445 9.41129C1.21074 8.84456 1.34741 8.28661 1.53285 7.74405C1.53159 7.73787 1.53159 7.7315 1.53285 7.72532C1.56197 7.66085 1.58629 7.59432 1.60561 7.52628C1.6283 7.44573 1.65814 7.36737 1.6948 7.29212L1.77695 7.12821C2.00946 6.57333 2.29147 6.04042 2.61957 5.5359C2.95611 5.02224 3.33785 4.53952 3.76027 4.09346C3.79358 4.05944 3.82885 4.02738 3.86589 3.99745L3.92926 3.95062C3.95789 3.92117 3.98455 3.88989 4.00906 3.85695C4.04192 3.81793 4.07713 3.77812 4.11468 3.73753C5.05814 2.86005 6.15421 2.16173 7.34901 1.6769C8.51486 1.22247 9.75653 0.992837 11.0082 1.00017C12.2714 1.00086 13.5231 1.23919 14.6978 1.70266C15.8765 2.16946 16.9575 2.85162 17.8852 3.71411C17.9214 3.75088 17.9551 3.79 17.9862 3.8312C18.012 3.86164 18.0378 3.89442 18.0683 3.92486C18.0937 3.93926 18.1173 3.95655 18.1387 3.97638C18.1669 4.00213 18.2021 4.03258 18.242 4.07238C18.6622 4.51831 19.0423 5.0002 19.378 5.51248C19.7083 6.01695 19.9911 6.55077 20.223 7.10713L20.2488 7.15865C20.3101 7.27004 20.3589 7.38783 20.3943 7.50989C20.3943 7.54267 20.4131 7.5778 20.4248 7.61058C20.4389 7.64571 20.453 7.67849 20.4694 7.71127V7.72298C20.653 8.26592 20.7889 8.82377 20.8755 9.39022C20.9612 9.95516 21.0028 10.5259 20.9999 11.0973V11.5773C20.9721 12.1351 20.8935 12.6892 20.7651 13.2328C20.2534 15.4346 19.0115 17.3995 17.2406 18.8093C15.4697 20.219 13.2737 20.9909 11.0082 21ZM4.13815 3.70007H4.27194C4.25349 3.68377 4.22969 3.67477 4.20505 3.67477C4.1804 3.67477 4.15661 3.68377 4.13815 3.70007ZM16.092 6.54514L17.4135 4.23864C17.1972 4.02625 16.9692 3.82612 16.7304 3.63918C16.5259 3.47732 16.3127 3.32646 16.092 3.18725V6.54514ZM16.092 9.56818L19.655 7.51926C19.4403 6.99698 19.1812 6.49403 18.8804 6.01593C18.5973 5.5672 18.2753 5.14409 17.9181 4.75146L16.092 7.94777V9.56818ZM16.092 10.9966H20.3474C20.3449 10.5106 20.3072 10.0254 20.2347 9.54476C20.1613 9.07226 20.0475 8.60691 19.8944 8.15384L16.092 10.3667V11.0083V10.9966ZM16.092 12.2821L19.7019 14.3732C19.8729 13.9426 20.0102 13.4995 20.1126 13.0478C20.2138 12.5935 20.2828 12.1326 20.3192 11.6686H16.0944V12.2821H16.092ZM16.092 14.7151L17.674 17.504C18.0277 17.1481 18.3511 16.7635 18.641 16.3542C18.9402 15.9268 19.204 15.4757 19.4296 15.0054L16.092 13.0947V14.7151ZM16.092 18.8036C16.4651 18.5506 16.8226 18.2754 17.1623 17.9793L16.092 16.106V18.7965V18.8036ZM5.92431 16.1177L4.85637 17.991C5.19538 18.2812 5.55204 18.5502 5.92431 18.7965V16.1177ZM5.92431 13.0947L2.58906 15.0054C2.81293 15.4766 3.07676 15.9279 3.37769 16.3542C3.66616 16.7646 3.9897 17.1493 4.3447 17.504L5.92431 14.7432V13.104V13.0947ZM5.92431 11.6686H1.6995C1.7359 12.1326 1.80492 12.5935 1.90604 13.0478C2.00574 13.5 2.13992 13.9438 2.3074 14.3755L5.91727 12.3079V11.6686H5.92431ZM5.92431 10.355L2.12433 8.15384C1.97149 8.60699 1.85763 9.07232 1.78399 9.54476C1.71111 10.0253 1.67424 10.5106 1.67368 10.9966H5.92431V10.3667V10.355ZM5.92431 7.91968L4.09825 4.74677C3.74182 5.13945 3.4206 5.56257 3.13828 6.01125C2.83764 6.4898 2.57776 6.99268 2.36139 7.51457L5.92431 9.5635V7.92436V7.91968ZM5.92431 3.19662C5.70603 3.34414 5.49244 3.49634 5.28355 3.66494C5.0461 3.84576 4.81959 4.04045 4.60523 4.24801L5.92431 6.55451V3.19662ZM11.3227 9.142C11.4044 9.16695 11.4831 9.20071 11.5574 9.24269C11.6403 9.29046 11.7129 9.35413 11.771 9.43003C11.8902 9.54599 11.9837 9.68558 12.0456 9.83981C12.0882 9.95275 12.1089 10.0727 12.1066 10.1934C12.3334 10.1997 12.5531 10.2731 12.738 10.4041C12.9202 10.5519 13.0603 10.7449 13.144 10.9638H15.3832V3.31136C15.3762 3.12758 15.3203 2.94898 15.2213 2.79386C15.1383 2.66409 15.0105 2.56913 14.8621 2.52691C14.8238 2.51531 14.7868 2.49961 14.7518 2.48008L14.6861 2.44964C14.6731 2.44982 14.6602 2.44744 14.6481 2.44261C14.636 2.43779 14.625 2.43063 14.6157 2.42154C14.6048 2.42351 14.5937 2.42351 14.5828 2.42154C14.0615 2.20492 13.5219 2.03487 12.9704 1.9134C12.4295 1.79646 11.88 1.72285 11.3274 1.69329V9.142H11.3227ZM6.62845 10.9685H8.80657C8.88353 10.7555 9.01845 10.5682 9.1962 10.4276C9.38575 10.2787 9.61922 10.1964 9.86043 10.1934C9.8677 9.96627 9.942 9.74634 10.074 9.56116C10.2169 9.37436 10.4097 9.23153 10.6303 9.14903V1.70266C9.52608 1.72774 8.43725 1.96631 7.42412 2.40515H7.38187L7.24105 2.46837L7.00634 2.57843C6.87715 2.67222 6.77709 2.80045 6.71764 2.9484C6.65924 3.10401 6.63136 3.26936 6.63549 3.43546V10.9685H6.62845ZM11.3227 13.4857V20.2999C11.9551 20.2878 12.5845 20.2093 13.2004 20.0657C13.8377 19.9101 14.4551 19.6823 15.0405 19.3866C15.1442 19.3038 15.2283 19.1991 15.2867 19.0801C15.3452 18.9611 15.3765 18.8307 15.3785 18.6982V11.6733H13.1581C13.08 11.8862 12.9443 12.0734 12.7662 12.2142C12.5794 12.3599 12.3507 12.442 12.1137 12.4484C12.1095 12.7203 12.0021 12.9805 11.8132 13.1766C11.6838 13.3156 11.5228 13.4216 11.3438 13.4857H11.3227ZM10.6186 13.4857C10.4517 13.4293 10.3 13.3356 10.1749 13.2118C9.96849 13.0057 9.84991 12.728 9.844 12.4367C9.71941 12.4327 9.59606 12.4106 9.47785 12.3711C9.32773 12.3153 9.19214 12.2265 9.08119 12.1112C9.00693 12.0438 8.94428 11.9647 8.89576 11.877C8.85626 11.8096 8.824 11.7381 8.79953 11.6639H6.6261V18.5624C6.6219 18.7216 6.64655 18.8802 6.69886 19.0307C6.75176 19.1707 6.84585 19.2915 6.96878 19.3773C8.10423 19.9555 9.35578 20.2709 10.6303 20.2999V13.4881L10.6186 13.4857ZM11.3555 9.85152C11.1607 9.65716 10.7758 9.6033 10.6092 9.85152C10.5568 9.89872 10.515 9.95634 10.4863 10.0207C10.4577 10.085 10.4429 10.1546 10.4429 10.225C10.4429 10.2954 10.4577 10.365 10.4863 10.4293C10.515 10.4937 10.5568 10.5513 10.6092 10.5985C10.6538 10.6875 10.7195 10.8842 10.581 10.9287C10.4715 11.077 10.3611 11.077 10.2501 10.9287C9.60929 10.472 9.04129 11.2424 9.50132 11.7014C9.60535 11.791 9.73822 11.8404 9.87569 11.8404C10.0132 11.8404 10.146 11.791 10.2501 11.7014C10.3604 11.5726 10.4848 11.575 10.6092 11.7014C10.6446 11.7496 10.6638 11.8079 10.6638 11.8677C10.6638 11.9275 10.6446 11.9857 10.6092 12.0339C10.4144 12.2283 10.358 12.6123 10.6092 12.7786C10.6497 12.8347 10.704 12.8795 10.7669 12.9086C10.8298 12.9377 10.8991 12.9502 10.9683 12.9448C11.0733 12.9432 11.1756 12.9112 11.2628 12.8527C11.35 12.7942 11.4182 12.7117 11.4592 12.6152C11.5002 12.5187 11.5123 12.4124 11.4939 12.3092C11.4755 12.206 11.4274 12.1104 11.3555 12.0339C11.3298 12.0145 11.3089 11.9894 11.2945 11.9605C11.2801 11.9317 11.2726 11.8999 11.2726 11.8677C11.2726 11.8354 11.2801 11.8037 11.2945 11.7748C11.3089 11.746 11.3298 11.7208 11.3555 11.7014C11.4682 11.5539 11.5903 11.5539 11.6888 11.7014C12.2733 12.1182 12.8835 11.5164 12.4634 10.9287C12.3539 10.8401 12.2171 10.7917 12.0761 10.7917C11.9351 10.7917 11.7984 10.8401 11.6888 10.9287C11.5785 11.0762 11.4682 11.0762 11.3555 10.9287C11.3016 10.9099 11.2734 10.8561 11.2734 10.7624C11.2753 10.731 11.2836 10.7003 11.2977 10.6721C11.3118 10.6439 11.3315 10.6189 11.3555 10.5985C11.4469 10.4965 11.4983 10.3651 11.5005 10.2284C11.5026 10.0916 11.4553 9.95867 11.3673 9.85386L11.3555 9.85152Z" fill="#161A1E" stroke="#161A1E" stroke-width="0.3"/>
</svg>
