<svg width="74" height="26" viewBox="0 0 74 26" fill="none" xmlns="http://www.w3.org/2000/svg">
<path fill-rule="evenodd" clip-rule="evenodd" d="M39.4975 20.0004C39.2084 20.1175 38.9095 20.2087 38.6043 20.2729C38.3204 20.3331 38.0311 20.3638 37.7409 20.3646C37.1555 20.3671 36.5784 20.2263 36.0598 19.9546C35.491 19.6496 34.9961 19.2236 34.6101 18.7064C34.1558 18.0989 33.7974 17.4254 33.5474 16.7093C33.307 16.0598 33.1261 15.3898 33.0069 14.7075C32.7954 13.4971 32.7691 12.2615 32.929 11.0431C32.9971 10.518 33.0989 9.99778 33.2336 9.48569C33.4285 8.72035 33.7185 7.98246 34.097 7.28931C34.4159 6.6992 34.8387 6.17159 35.3453 5.73191C35.685 5.44269 36.0725 5.21484 36.4904 5.05857C36.8903 4.90579 37.3151 4.82815 37.7432 4.82954C38.0335 4.83016 38.3229 4.86164 38.6066 4.92344C38.916 4.99018 39.2187 5.08446 39.5113 5.20515C39.6049 5.23965 39.6884 5.29714 39.7541 5.37234C39.8193 5.45069 39.8542 5.54983 39.8525 5.65175C39.8519 5.68866 39.8481 5.72544 39.8411 5.76169C39.8333 5.79813 39.8234 5.83407 39.8113 5.86933C39.7741 5.95822 39.716 6.03679 39.6418 6.09836C39.5643 6.16154 39.467 6.19557 39.367 6.19455C39.3312 6.19785 39.2952 6.19785 39.2594 6.19455C39.2234 6.18891 39.1881 6.17971 39.154 6.16707C38.9198 6.07009 38.6776 5.99347 38.4303 5.93804C38.2088 5.89135 37.9832 5.86756 37.7569 5.86704C37.2409 5.86291 36.736 6.01631 36.3095 6.30678C35.8121 6.66291 35.4012 7.12628 35.1071 7.66262C34.6932 8.36749 34.3846 9.12904 34.1909 9.92314C33.7818 11.6799 33.7818 13.5073 34.1909 15.2641C34.3838 16.0563 34.6925 16.8157 35.1071 17.5177C35.4018 18.0536 35.8126 18.5169 36.3095 18.8736C36.736 19.164 37.2409 19.3174 37.7569 19.3133C37.9833 19.3122 38.209 19.2877 38.4303 19.24C38.6777 19.1848 38.9198 19.1081 39.154 19.011C39.189 18.9975 39.225 18.9868 39.2616 18.9789C39.2992 18.9701 39.3376 18.9655 39.3762 18.9652C39.4766 18.9638 39.5742 18.9988 39.651 19.0637C39.7259 19.1291 39.7841 19.2116 39.8205 19.3042C39.8328 19.3385 39.8428 19.3737 39.8502 19.4095C39.8585 19.4456 39.8623 19.4825 39.8617 19.5194C39.863 19.6206 39.8281 19.7189 39.7632 19.7966C39.6968 19.8725 39.6126 19.9307 39.5182 19.966L39.4975 20.0004ZM67.0062 14.3548L65.5198 20.0027C65.4936 20.1158 65.4356 20.2192 65.3526 20.3004C65.2645 20.3806 65.1487 20.4233 65.0297 20.4195C64.9866 20.4189 64.9436 20.4143 64.9014 20.4058C64.7842 20.3878 64.6762 20.3314 64.5945 20.2455C64.5565 20.2004 64.5278 20.1483 64.5101 20.0921C64.4924 20.0358 64.486 19.9766 64.4914 19.9179C64.4892 19.8966 64.4892 19.8751 64.4914 19.8538C64.4948 19.833 64.4994 19.8123 64.5052 19.792L65.348 16.4344V16.4161L68.1696 5.1937C68.1952 5.08123 68.2553 4.97955 68.3414 4.90283C68.43 4.82891 68.54 4.78554 68.6552 4.77915H68.6918C68.8038 4.77589 68.9134 4.8124 69.001 4.88222C69.0863 4.9545 69.1458 5.05257 69.1705 5.16163L72.7456 19.7324C72.7456 19.7622 72.7456 19.792 72.7617 19.824C72.7639 19.8553 72.7639 19.8867 72.7617 19.9179C72.7575 20.0259 72.7153 20.1289 72.6426 20.2088C72.5676 20.2868 72.4725 20.3423 72.3677 20.3691L72.2761 20.3898H72.1845C72.0755 20.3927 71.9696 20.3533 71.8891 20.2798C71.8125 20.2045 71.7586 20.1093 71.7333 20.005L70.224 14.3548H67.0062ZM67.3108 13.1662H69.908L68.6552 7.52063L67.3108 13.1662ZM59.4162 19.311H63.4333C63.5031 19.3009 63.5743 19.3071 63.6414 19.3291C63.7084 19.351 63.7695 19.3882 63.8198 19.4376C63.8701 19.4871 63.9083 19.5474 63.9315 19.6141C63.9546 19.6807 63.9621 19.7518 63.9532 19.8218C63.9571 19.8918 63.9469 19.9619 63.9233 20.028C63.8997 20.0941 63.8632 20.1548 63.8158 20.2065C63.7645 20.2538 63.7042 20.2904 63.6385 20.314C63.5728 20.3376 63.503 20.3478 63.4333 20.3439H58.9031C58.8605 20.3444 58.818 20.3383 58.7772 20.3256C58.7356 20.3148 58.6955 20.2986 58.6581 20.2775C58.5751 20.2376 58.5052 20.1748 58.4565 20.0966C58.4076 20.0133 58.3822 19.9183 58.3832 19.8218V5.30363C58.3765 5.23368 58.3853 5.16311 58.4091 5.09696C58.4328 5.03082 58.4709 4.97075 58.5206 4.92106C58.5703 4.87137 58.6303 4.83329 58.6965 4.80955C58.7626 4.78581 58.8332 4.77699 58.9031 4.78373C58.9733 4.77451 59.0446 4.78167 59.1116 4.80464C59.1785 4.82761 59.2392 4.86578 59.2889 4.91615C59.3386 4.96652 59.376 5.02771 59.398 5.09494C59.4201 5.16217 59.4263 5.2336 59.4162 5.30363V19.311ZM54.4989 5.70214C53.9008 6.1928 53.3803 6.77116 52.9553 7.41756C52.6237 7.92355 52.4179 8.50152 52.3552 9.10322C52.3552 9.15131 52.3552 9.19483 52.3552 9.23147V9.36889C52.3531 9.92523 52.5271 10.468 52.8522 10.9194C53.273 11.4701 53.8072 11.9239 54.4188 12.2501C55.154 12.6503 55.7824 13.2214 56.251 13.9151C56.6641 14.5639 56.8783 15.3195 56.8671 16.0886V16.2054C56.8528 16.9903 56.6333 17.7578 56.2304 18.4316C55.7766 19.1565 55.172 19.7751 54.4577 20.2455C54.4112 20.2779 54.3603 20.3033 54.3065 20.321C54.2545 20.3403 54.1994 20.3503 54.1439 20.3508C54.0626 20.3504 53.9831 20.3265 53.9149 20.2821C53.8505 20.2394 53.794 20.186 53.7477 20.1241V20.1058C53.7215 20.0585 53.6986 20.0095 53.679 19.9592C53.6608 19.9069 53.6515 19.8519 53.6515 19.7966C53.6515 19.7155 53.6746 19.6361 53.7179 19.5675C53.7595 19.4989 53.8149 19.4396 53.8805 19.3935C54.1674 19.2024 54.433 18.9813 54.673 18.7339C54.9077 18.4884 55.1151 18.2181 55.2914 17.9277C55.4675 17.641 55.6068 17.3332 55.7059 17.0116C55.7941 16.7141 55.8396 16.4057 55.841 16.0955V16.0222C55.8379 15.4581 55.6682 14.9075 55.3532 14.4396C54.9739 13.9041 54.4752 13.4642 53.8966 13.1547C53.135 12.7446 52.4734 12.1714 51.959 11.476C51.5268 10.8655 51.2962 10.1352 51.2994 9.38721C51.2994 9.30934 51.2994 9.22689 51.2994 9.13528C51.3568 8.36899 51.5988 7.62798 52.0048 6.97554C52.4943 6.1958 53.106 5.49983 53.8164 4.91428C53.8611 4.87229 53.9121 4.83752 53.9676 4.81122C54.0245 4.78277 54.0872 4.76788 54.1508 4.7677C54.2312 4.76577 54.3105 4.7864 54.3798 4.82725C54.4449 4.86811 54.5022 4.92004 54.5493 4.9807C54.5902 5.02534 54.6235 5.07641 54.6478 5.13186C54.6747 5.19084 54.6887 5.25485 54.689 5.31966C54.6887 5.39369 54.6689 5.46634 54.6318 5.53037C54.5969 5.59362 54.552 5.65085 54.4989 5.69985V5.70214ZM50.2321 19.8218C50.2364 19.8911 50.2269 19.9607 50.2041 20.0263C50.1813 20.092 50.1457 20.1525 50.0993 20.2042C50.049 20.2526 49.9893 20.2899 49.9238 20.314C49.8584 20.338 49.7887 20.3482 49.7191 20.3439C49.6494 20.3478 49.5796 20.3376 49.5139 20.314C49.4482 20.2904 49.3879 20.2538 49.3366 20.2065C49.2892 20.1548 49.2527 20.0941 49.2291 20.028C49.2055 19.9619 49.1953 19.8918 49.1992 19.8218V5.30363C49.1925 5.23368 49.2013 5.16311 49.225 5.09696C49.2488 5.03082 49.2868 4.97075 49.3365 4.92106C49.3862 4.87137 49.4463 4.83329 49.5124 4.80955C49.5786 4.78581 49.6491 4.77699 49.7191 4.78373C49.7893 4.77451 49.8606 4.78167 49.9275 4.80464C49.9944 4.82761 50.0551 4.86578 50.1048 4.91615C50.1545 4.96652 50.1919 5.02771 50.214 5.09494C50.2361 5.16217 50.2423 5.2336 50.2321 5.30363V19.8218ZM45.8943 12.0508V5.30363C45.8901 5.23443 45.8999 5.16509 45.9231 5.09976C45.9463 5.03443 45.9825 4.97446 46.0294 4.92344C46.0792 4.87506 46.1385 4.83764 46.2036 4.81358C46.2687 4.78952 46.3381 4.77935 46.4073 4.78373C46.4782 4.77293 46.5506 4.7789 46.6187 4.80117C46.6868 4.82344 46.7488 4.86138 46.7996 4.91195C46.8504 4.96252 46.8886 5.0243 46.9112 5.09233C46.9337 5.16035 46.94 5.23273 46.9295 5.30363V19.8218C46.9335 19.8918 46.9234 19.962 46.8998 20.0281C46.8762 20.0942 46.8396 20.1548 46.7921 20.2065C46.7404 20.2539 46.6797 20.2905 46.6136 20.3141C46.5475 20.3377 46.4774 20.3478 46.4073 20.3439C46.3381 20.3483 46.2687 20.3382 46.2036 20.3141C46.1385 20.29 46.0792 20.2526 46.0294 20.2042C45.9823 20.1529 45.9461 20.0925 45.9228 20.0268C45.8996 19.9611 45.8899 19.8913 45.8943 19.8218V13.0837H41.7122V19.8218C41.7166 19.892 41.7065 19.9625 41.6824 20.0287C41.6584 20.0949 41.621 20.1554 41.5725 20.2065C41.521 20.2542 41.4604 20.291 41.3942 20.3146C41.3281 20.3382 41.2579 20.3482 41.1878 20.3439C41.1189 20.3481 41.0499 20.3379 40.9852 20.3138C40.9205 20.2898 40.8616 20.2524 40.8122 20.2042C40.7189 20.0994 40.6711 19.9618 40.6793 19.8218V5.30363C40.6693 5.23403 40.6755 5.16306 40.6973 5.09623C40.7192 5.02939 40.7561 4.96847 40.8052 4.9182C40.8544 4.86793 40.9145 4.82966 40.9808 4.80634C41.0472 4.78302 41.118 4.77528 41.1878 4.78373C41.2588 4.77252 41.3315 4.77819 41.3999 4.80028C41.4683 4.82237 41.5306 4.86026 41.5817 4.91088C41.6327 4.9615 41.6712 5.02343 41.6938 5.09166C41.7165 5.15989 41.7228 5.23251 41.7122 5.30363V12.0508H45.8943Z" fill="#161A1E" stroke="#161A1E" stroke-width="0.3"/>
<path fill-rule="evenodd" clip-rule="evenodd" d="M13.0098 24.5933C11.4103 24.5904 9.82719 24.2725 8.35124 23.6575C8.26112 23.6238 8.16535 23.5845 8.06959 23.5395C7.97664 23.4974 7.88088 23.4468 7.78794 23.3934C7.30412 23.1967 6.84091 22.9529 6.40501 22.6656C5.92892 22.353 5.48041 22.0005 5.06434 21.6119L4.69819 21.2578C4.6448 21.2288 4.60009 21.1861 4.56863 21.1342L4.52638 21.0864C4.03282 20.599 3.5815 20.0707 3.17726 19.5072C2.29379 18.2289 1.65143 16.8006 1.28172 15.2923C1.1263 14.6374 1.03201 13.9695 1.00007 13.2973V12.7353C0.997895 12.0497 1.0478 11.3649 1.14934 10.6868C1.25289 10.0067 1.4169 9.3372 1.63942 8.68613C1.63791 8.67871 1.63791 8.67106 1.63942 8.66365C1.67437 8.58628 1.70355 8.50645 1.72674 8.4248C1.75396 8.32814 1.78977 8.2341 1.83376 8.14381L1.93234 7.94711C2.21135 7.28126 2.54976 6.64177 2.94348 6.03634C3.34733 5.41995 3.80542 4.84069 4.31232 4.30541C4.3523 4.26459 4.39462 4.22612 4.43907 4.1902L4.51511 4.134C4.54947 4.09867 4.58146 4.06112 4.61088 4.02161C4.65031 3.97477 4.69256 3.927 4.73762 3.8783C5.86977 2.82532 7.18506 1.98733 8.61882 1.40554C10.0178 0.860231 11.5078 0.584666 13.0098 0.593466C14.5257 0.594299 16.0278 0.880291 17.4374 1.43645C18.8518 1.99661 20.149 2.81521 21.2623 3.8502C21.3057 3.89432 21.3462 3.94126 21.3834 3.9907C21.4144 4.02723 21.4454 4.06657 21.482 4.1031C21.5124 4.12037 21.5408 4.14112 21.5665 4.16491C21.6003 4.19582 21.6425 4.23235 21.6904 4.28012C22.1946 4.81524 22.6508 5.3935 23.0536 6.00824C23.4499 6.61361 23.7893 7.25418 24.0676 7.92182L24.0985 7.98364C24.1721 8.11731 24.2306 8.25866 24.2732 8.40513C24.2732 8.44447 24.2957 8.48662 24.3098 8.52596C24.3267 8.56811 24.3436 8.60745 24.3633 8.64679V8.66084C24.5836 9.31236 24.7466 9.98178 24.8506 10.6615C24.9534 11.3395 25.0033 12.0243 24.9998 12.71V13.286C24.9665 13.9554 24.8722 14.6203 24.7182 15.2727C24.104 17.9148 22.6138 20.2727 20.4887 21.9644C18.3637 23.656 15.7284 24.5823 13.0098 24.5933ZM4.76579 3.83334H4.92633C4.90418 3.81378 4.87563 3.80299 4.84606 3.80299C4.81648 3.80299 4.78793 3.81378 4.76579 3.83334ZM19.1104 7.24743L20.6962 4.47963C20.4366 4.22477 20.163 3.98461 19.8765 3.76028C19.631 3.56604 19.3753 3.38501 19.1104 3.21796V7.24743ZM19.1104 10.8751L23.386 8.41637C23.1284 7.78964 22.8174 7.1861 22.4565 6.61238C22.1167 6.0739 21.7303 5.56617 21.3017 5.09501L19.1104 8.93059V10.8751ZM19.1104 12.5891H24.2168C24.2138 12.0059 24.1687 11.4237 24.0816 10.847C23.9936 10.28 23.857 9.72156 23.6732 9.17787L19.1104 11.8333V12.6032V12.5891ZM19.1104 14.1318L23.4423 16.6411C23.6475 16.1244 23.8123 15.5927 23.9352 15.0507C24.0565 14.5054 24.1394 13.9524 24.183 13.3956H19.1133V14.1318H19.1104ZM19.1104 17.0514L21.0088 20.398C21.4332 19.9709 21.8213 19.5094 22.1692 19.0183C22.5283 18.5054 22.8448 17.9641 23.1156 17.3998L19.1104 15.1069V17.0514ZM19.1104 21.9575C19.5582 21.654 19.9871 21.3237 20.3948 20.9684L19.1104 18.7205V21.9491V21.9575ZM6.90918 18.7345L5.62765 20.9825C6.03446 21.3307 6.46245 21.6535 6.90918 21.9491V18.7345ZM6.90918 15.1069L2.90687 17.3998C3.17551 17.9652 3.49212 18.5067 3.85323 19.0183C4.19939 19.5108 4.58765 19.9724 5.01364 20.398L6.90918 17.0851V15.1181V15.1069ZM6.90918 13.3956H1.8394C1.88308 13.9524 1.9659 14.5054 2.08725 15.0507C2.20689 15.5932 2.3679 16.1258 2.56888 16.6439L6.90072 14.1627V13.3956H6.90918ZM6.90918 11.8192L2.34919 9.17787C2.16578 9.72165 2.02915 10.28 1.94079 10.847C1.85333 11.4236 1.80909 12.0059 1.80842 12.5891H6.90918V11.8333V11.8192ZM6.90918 8.89687L4.7179 5.08939C4.29019 5.56061 3.90472 6.06834 3.56594 6.60676C3.20517 7.18103 2.89331 7.78447 2.63366 8.41075L6.90918 10.8695V8.90249V8.89687ZM6.90918 3.2292C6.64724 3.40623 6.39093 3.58887 6.14026 3.79119C5.85532 4.00817 5.58351 4.2418 5.32628 4.49087L6.90918 7.25867V3.2292ZM13.3872 10.3637C13.4852 10.3936 13.5797 10.4341 13.6689 10.4845C13.7683 10.5418 13.8555 10.6182 13.9252 10.7093C14.0682 10.8485 14.1805 11.016 14.2547 11.201C14.3058 11.3366 14.3307 11.4806 14.3279 11.6253C14.6 11.6329 14.8637 11.7209 15.0856 11.8782C15.3043 12.0555 15.4723 12.2872 15.5729 12.5498H18.2598V3.36689C18.2514 3.14636 18.1843 2.93204 18.0655 2.74589C17.9659 2.59017 17.8126 2.47621 17.6346 2.42555C17.5885 2.41163 17.5442 2.39279 17.5022 2.36936L17.4233 2.33283C17.4077 2.33305 17.3922 2.33018 17.3777 2.3244C17.3632 2.31861 17.35 2.31001 17.3388 2.29911C17.3258 2.30148 17.3124 2.30148 17.2994 2.29911C16.6738 2.03916 16.0262 1.83511 15.3644 1.68935C14.7154 1.54901 14.0561 1.46068 13.3929 1.42521V10.3637H13.3872ZM7.75414 12.5554H10.3679C10.4602 12.2999 10.6221 12.0751 10.8354 11.9063C11.0629 11.7277 11.3431 11.6289 11.6325 11.6253C11.6412 11.3528 11.7304 11.0889 11.8888 10.8666C12.0603 10.6425 12.2917 10.4711 12.5563 10.3721V1.43645C11.2313 1.46656 9.9247 1.75284 8.70895 2.27944H8.65825L8.48926 2.35531L8.2076 2.48737C8.05258 2.59992 7.93251 2.7538 7.86117 2.93135C7.79109 3.11807 7.75763 3.31649 7.76259 3.51582V12.5554H7.75414ZM13.3872 15.5761V23.7531C14.1461 23.7387 14.9014 23.6445 15.6405 23.4721C16.4053 23.2854 17.1462 23.012 17.8486 22.6572C17.9731 22.5578 18.074 22.4322 18.1441 22.2894C18.2142 22.1466 18.2518 21.9901 18.2542 21.8311V13.4012H15.5898C15.496 13.6567 15.3332 13.8814 15.1194 14.0503C14.8953 14.2252 14.6208 14.3237 14.3364 14.3313C14.3314 14.6576 14.2025 14.9699 13.9759 15.2052C13.8205 15.372 13.6274 15.4992 13.4126 15.5761H13.3872ZM12.5423 15.5761C12.342 15.5084 12.16 15.396 12.0099 15.2474C11.7622 15.0001 11.6199 14.6668 11.6128 14.3173C11.4633 14.3125 11.3153 14.286 11.1734 14.2386C10.9933 14.1716 10.8306 14.065 10.6974 13.9267C10.6083 13.8458 10.5331 13.7509 10.4749 13.6457C10.4275 13.5647 10.3888 13.479 10.3594 13.39H7.75132V21.6681C7.74628 21.8591 7.77586 22.0495 7.83863 22.2301C7.90212 22.3981 8.01502 22.5431 8.16254 22.646C9.52507 23.3399 11.0269 23.7183 12.5563 23.7531V15.5789L12.5423 15.5761ZM13.4267 11.2151C13.1929 10.9819 12.731 10.9172 12.531 11.2151C12.4682 11.2717 12.418 11.3409 12.3836 11.4181C12.3493 11.4953 12.3315 11.5788 12.3315 11.6633C12.3315 11.7477 12.3493 11.8313 12.3836 11.9085C12.418 11.9857 12.4682 12.0548 12.531 12.1115C12.5845 12.2182 12.6634 12.4543 12.4972 12.5077C12.3658 12.6856 12.2334 12.6856 12.1001 12.5077C11.3311 11.9597 10.6495 12.8842 11.2016 13.4349C11.3264 13.5425 11.4859 13.6017 11.6508 13.6017C11.8158 13.6017 11.9752 13.5425 12.1001 13.4349C12.2324 13.2804 12.3817 13.2832 12.531 13.4349C12.5736 13.4928 12.5965 13.5627 12.5965 13.6344C12.5965 13.7062 12.5736 13.7761 12.531 13.834C12.2972 14.0672 12.2296 14.528 12.531 14.7275C12.5796 14.7949 12.6448 14.8486 12.7203 14.8836C12.7957 14.9185 12.879 14.9335 12.9619 14.927C13.088 14.9251 13.2108 14.8867 13.3154 14.8165C13.4199 14.7463 13.5018 14.6473 13.5511 14.5315C13.6003 14.4157 13.6147 14.2881 13.5927 14.1643C13.5706 14.0405 13.5129 13.9257 13.4267 13.834C13.3957 13.8106 13.3707 13.7805 13.3534 13.7459C13.3361 13.7113 13.3271 13.6731 13.3271 13.6344C13.3271 13.5958 13.3361 13.5576 13.3534 13.523C13.3707 13.4884 13.3957 13.4583 13.4267 13.4349C13.5619 13.2579 13.7083 13.2579 13.8266 13.4349C14.5279 13.9351 15.2602 13.213 14.7561 12.5077C14.6246 12.4013 14.4605 12.3433 14.2913 12.3433C14.1221 12.3433 13.958 12.4013 13.8266 12.5077C13.6942 12.6847 13.5619 12.6847 13.4267 12.5077C13.3619 12.4852 13.3281 12.4206 13.3281 12.3082C13.3304 12.2704 13.3403 12.2336 13.3573 12.1998C13.3742 12.166 13.3978 12.1359 13.4267 12.1115C13.5362 11.9891 13.598 11.8314 13.6006 11.6673C13.6032 11.5032 13.5464 11.3437 13.4407 11.2179L13.4267 11.2151Z" fill="#161A1E" stroke="#161A1E" stroke-width="0.3"/>
</svg>
