<svg width="12" height="10" viewBox="0 0 12 10" fill="none" xmlns="http://www.w3.org/2000/svg">
<path d="M0.674534 4.04254L0.655803 4.04664H8.68566L6.16136 1.51678C6.03775 1.39327 5.96995 1.22595 5.96995 1.05034C5.96995 0.874732 6.03775 0.708586 6.16136 0.584781L6.55414 0.191805C6.67766 0.0682927 6.84224 0 7.01775 0C7.19336 0 7.35805 0.0678049 7.48156 0.191317L11.8087 4.51805C11.9327 4.64205 12.0005 4.80722 12 4.98293C12.0005 5.15961 11.9327 5.32488 11.8087 5.44869L7.48156 9.77581C7.35805 9.89922 7.19346 9.96712 7.01775 9.96712C6.84224 9.96712 6.67766 9.89913 6.55414 9.77581L6.16136 9.38283C6.03775 9.25951 5.96995 9.09483 5.96995 8.91922C5.96995 8.74371 6.03775 8.58771 6.16136 8.4643L8.71414 5.92029H0.665558C0.3039 5.92029 -2.86102e-06 5.60859 -2.86102e-06 5.24712V4.69132C-2.86102e-06 4.32986 0.312876 4.04254 0.674534 4.04254Z" fill="#C7CCCF"/>
</svg>
