<svg width="17" height="17" viewBox="0 0 17 17" fill="none" xmlns="http://www.w3.org/2000/svg">
<path d="M16.8444 7.8573L10.2375 1.25014C9.27929 0.292224 7.72072 0.292224 6.76246 1.25014L0.155641 7.8573C-0.0518804 8.06482 -0.0518804 8.40117 0.155641 8.60869C0.362831 8.81621 0.699514 8.81621 0.906703 8.60869L1.32806 8.18734V14.9409C1.32806 15.7845 2.01188 16.4683 2.85541 16.4683H5.51169C5.69507 16.4683 5.84372 16.3196 5.84372 16.1362V11.2221C5.84372 10.3053 6.58702 9.56196 7.5039 9.56196H9.4961C10.413 9.56196 11.1563 10.3053 11.1563 11.2221V16.1362C11.1563 16.3196 11.3049 16.4683 11.4883 16.4683H14.1446C14.9881 16.4683 15.6719 15.7845 15.6719 14.9409V8.18734L16.0933 8.60869C16.1969 8.71229 16.333 8.76441 16.4688 8.76441C16.6046 8.76441 16.7408 8.71229 16.8444 8.60869C17.0519 8.40117 17.0519 8.06482 16.8444 7.8573Z" fill="black"/>
</svg>
