<svg width="121" height="42" viewBox="0 0 121 42" fill="none" xmlns="http://www.w3.org/2000/svg">
<path fill-rule="evenodd" clip-rule="evenodd" d="M65.1628 33.3446C64.681 33.5397 64.1828 33.6917 63.6741 33.7988C63.201 33.8992 62.7187 33.9503 62.2351 33.9515C61.2594 33.9557 60.2975 33.7211 59.4333 33.2682C58.4853 32.76 57.6605 32.0498 57.017 31.1879C56.2599 30.1754 55.6626 29.0529 55.2459 27.8593C54.8452 26.7768 54.5437 25.6602 54.345 24.5232C53.9925 22.5057 53.9488 20.4463 54.2152 18.4157C54.3288 17.5405 54.4984 16.6735 54.7229 15.8201C55.0477 14.5445 55.5311 13.3147 56.162 12.1594C56.6934 11.1759 57.3981 10.2966 58.2423 9.56377C58.8086 9.08173 59.4544 8.70198 60.1509 8.44153C60.8175 8.1869 61.5253 8.05749 62.2389 8.05981C62.7228 8.06085 63.2052 8.11331 63.6779 8.21632C64.1935 8.32755 64.6981 8.48468 65.1857 8.68583C65.3418 8.74333 65.4809 8.83915 65.5903 8.96448C65.699 9.09507 65.7572 9.2603 65.7545 9.43017C65.7534 9.49168 65.747 9.55298 65.7354 9.61339C65.7224 9.67412 65.7058 9.73403 65.6858 9.7928C65.6237 9.94094 65.5268 10.0719 65.4033 10.1745C65.274 10.2798 65.112 10.3365 64.9452 10.3348C64.8856 10.3403 64.8255 10.3403 64.7658 10.3348C64.7059 10.3254 64.6471 10.3101 64.5902 10.289C64.1999 10.1274 63.7963 9.99969 63.384 9.90731C63.015 9.8295 62.6389 9.78985 62.2618 9.78898C61.4018 9.78209 60.5602 10.0378 59.8493 10.5219C59.0204 11.1154 58.3356 11.8877 57.8453 12.7816C57.1556 13.9564 56.6412 15.2256 56.3185 16.5491C55.6365 19.4771 55.6365 22.5227 56.3185 25.4507C56.6399 26.771 57.1544 28.0367 57.8453 29.2068C58.3366 30.1 59.0213 30.872 59.8493 31.4665C60.5602 31.9506 61.4018 32.2063 62.2618 32.1994C62.6391 32.1976 63.0152 32.1567 63.384 32.0773C63.7964 31.9852 64.2 31.8574 64.5902 31.6956C64.6485 31.673 64.7085 31.6552 64.7696 31.6421C64.8322 31.6274 64.8962 31.6198 64.9605 31.6192C65.128 31.6169 65.2907 31.6752 65.4186 31.7834C65.5435 31.8924 65.6404 32.0299 65.701 32.1842C65.7216 32.2415 65.7382 32.3002 65.7507 32.3598C65.7644 32.4198 65.7708 32.4814 65.7697 32.543C65.7719 32.7116 65.7137 32.8754 65.6056 33.0048C65.4949 33.1314 65.3546 33.2284 65.1972 33.2873L65.1628 33.3446ZM111.011 23.9353L108.533 33.3484C108.49 33.537 108.393 33.7092 108.255 33.8446C108.108 33.9782 107.915 34.0494 107.716 34.0431C107.645 34.0421 107.573 34.0344 107.503 34.0202C107.307 33.9902 107.127 33.8962 106.991 33.753C106.928 33.678 106.88 33.5911 106.85 33.4973C106.821 33.4036 106.81 33.305 106.819 33.2072C106.816 33.1716 106.816 33.1358 106.819 33.1003C106.825 33.0655 106.833 33.0311 106.842 32.9972L108.247 27.4013V27.3707L112.95 8.66674C112.992 8.47929 113.092 8.30983 113.236 8.18196C113.384 8.05877 113.567 7.98648 113.759 7.97584H113.82C114.007 7.9704 114.189 8.03125 114.335 8.14761C114.477 8.26808 114.577 8.43153 114.618 8.6133L120.576 32.898C120.576 32.9476 120.576 32.9972 120.603 33.0507C120.607 33.1028 120.607 33.1551 120.603 33.2072C120.596 33.3871 120.526 33.5588 120.405 33.6919C120.28 33.8218 120.121 33.9144 119.946 33.9591L119.794 33.9935H119.641C119.459 33.9984 119.283 33.9327 119.149 33.8103C119.021 33.6848 118.931 33.5261 118.889 33.3522L116.374 23.9353H111.011ZM111.518 21.9542H115.847L113.759 12.545L111.518 21.9542ZM98.3605 32.1956H105.056C105.172 32.1788 105.291 32.1891 105.403 32.2257C105.514 32.2623 105.616 32.3242 105.7 32.4066C105.784 32.489 105.847 32.5896 105.886 32.7007C105.925 32.8117 105.937 32.9302 105.922 33.0468C105.929 33.1636 105.912 33.2805 105.872 33.3906C105.833 33.5007 105.772 33.6019 105.693 33.6881C105.608 33.767 105.507 33.8279 105.398 33.8672C105.288 33.9065 105.172 33.9235 105.056 33.9171H97.5055C97.4343 33.918 97.3635 33.9077 97.2955 33.8866C97.2262 33.8686 97.1595 33.8416 97.097 33.8065C96.9587 33.7398 96.8422 33.6352 96.7611 33.5049C96.6796 33.3662 96.6373 33.2078 96.639 33.0468V8.84996C96.6277 8.73338 96.6424 8.61575 96.682 8.50552C96.7216 8.39528 96.785 8.29517 96.8679 8.21235C96.9507 8.12953 97.0508 8.06607 97.161 8.0265C97.2713 7.98692 97.3889 7.97223 97.5055 7.98347C97.6224 7.9681 97.7413 7.98002 97.8529 8.01831C97.9644 8.0566 98.0656 8.12022 98.1484 8.20416C98.2312 8.28811 98.2935 8.3901 98.3303 8.50215C98.3671 8.6142 98.3774 8.73325 98.3605 8.84996V32.1956ZM90.1651 9.51415C89.1682 10.3319 88.3008 11.2958 87.5924 12.3732C87.0397 13.2165 86.6968 14.1798 86.5923 15.1826C86.5923 15.2628 86.5923 15.3353 86.5923 15.3964V15.6254C86.5888 16.5526 86.8787 17.4572 87.4206 18.2096C88.1219 19.1274 89.0123 19.8838 90.0315 20.4274C91.257 21.0945 92.3043 22.0462 93.0852 23.2024C93.7738 24.2838 94.1308 25.5431 94.112 26.8249V27.0196C94.0883 28.3278 93.7225 29.6069 93.0509 30.7298C92.2946 31.938 91.2869 32.9691 90.0964 33.753C90.019 33.807 89.9341 33.8494 89.8445 33.879C89.7577 33.911 89.666 33.9278 89.5735 33.9286C89.4379 33.9279 89.3053 33.8881 89.1917 33.8141C89.0844 33.7429 88.9902 33.6538 88.9131 33.5507V33.5202C88.8694 33.4414 88.8312 33.3598 88.7986 33.2759C88.7682 33.1887 88.7528 33.0971 88.7528 33.0048C88.7528 32.8697 88.7912 32.7373 88.8635 32.6231C88.9327 32.5087 89.025 32.4099 89.1345 32.333C89.6126 32.0146 90.0553 31.6461 90.4552 31.2337C90.8465 30.8245 91.1921 30.374 91.4858 29.8901C91.7794 29.4122 92.0115 28.8992 92.1767 28.3632C92.3237 27.8675 92.3995 27.3534 92.402 26.8363V26.7142C92.3967 25.7741 92.1139 24.8565 91.5889 24.0765C90.9567 23.1841 90.1256 22.451 89.1612 21.9351C87.8919 21.2516 86.7892 20.2962 85.9319 19.1372C85.2116 18.1197 84.8273 16.9025 84.8326 15.6559C84.8326 15.5261 84.8326 15.3887 84.8326 15.236C84.9283 13.9589 85.3316 12.7239 86.0082 11.6365C86.8241 10.3369 87.8435 9.17696 89.0276 8.20105C89.1021 8.13106 89.1871 8.07311 89.2795 8.02928C89.3744 7.98186 89.4789 7.95704 89.5849 7.95675C89.7189 7.95353 89.8511 7.98791 89.9666 8.056C90.075 8.12409 90.1706 8.21065 90.2491 8.31174C90.3172 8.38615 90.3727 8.47127 90.4132 8.56368C90.458 8.66198 90.4814 8.76866 90.4819 8.87668C90.4813 9.00007 90.4484 9.12115 90.3865 9.22786C90.3283 9.33328 90.2536 9.42866 90.1651 9.51033V9.51415ZM83.0538 33.0468C83.0609 33.1625 83.0451 33.2784 83.0071 33.3878C82.9691 33.4972 82.9097 33.598 82.8324 33.6843C82.7486 33.7648 82.649 33.8271 82.54 33.8672C82.4309 33.9073 82.3147 33.9243 82.1987 33.9171C82.0826 33.9235 81.9663 33.9065 81.8568 33.8672C81.7473 33.8279 81.6468 33.767 81.5613 33.6881C81.4823 33.6019 81.4214 33.5007 81.382 33.3906C81.3427 33.2805 81.3258 33.1636 81.3322 33.0468V8.84996C81.321 8.73338 81.3357 8.61575 81.3753 8.50552C81.4148 8.39528 81.4783 8.29517 81.5611 8.21235C81.6439 8.12953 81.7441 8.06607 81.8543 8.0265C81.9645 7.98692 82.0821 7.97223 82.1987 7.98347C82.3157 7.9681 82.4346 7.98002 82.5461 8.01831C82.6577 8.0566 82.7588 8.12022 82.8416 8.20416C82.9245 8.28811 82.9867 8.3901 83.0236 8.50215C83.0604 8.6142 83.0707 8.73325 83.0538 8.84996V33.0468ZM75.8241 20.0953V8.84996C75.8171 8.73463 75.8334 8.61906 75.8721 8.51018C75.9108 8.4013 75.9711 8.30135 76.0493 8.21632C76.1322 8.13569 76.2311 8.07331 76.3396 8.03321C76.448 7.9931 76.5637 7.97616 76.6791 7.98347C76.7972 7.96546 76.9179 7.97541 77.0314 8.01253C77.145 8.04964 77.2482 8.11288 77.3329 8.19716C77.4175 8.28144 77.4812 8.38441 77.5188 8.49779C77.5565 8.61117 77.5669 8.7318 77.5494 8.84996V33.0468C77.5561 33.1636 77.5393 33.2805 77.4999 33.3907C77.4606 33.5009 77.3996 33.602 77.3204 33.6881C77.2342 33.7671 77.133 33.828 77.0229 33.8673C76.9128 33.9067 76.7959 33.9236 76.6791 33.9171C76.5637 33.9245 76.448 33.9075 76.3396 33.8674C76.2311 33.8273 76.1322 33.7649 76.0493 33.6843C75.9708 33.5987 75.9104 33.4981 75.8717 33.3885C75.833 33.279 75.8168 33.1628 75.8241 33.0468V21.8168H68.854V33.0468C68.8613 33.164 68.8444 33.2814 68.8043 33.3917C68.7642 33.502 68.7019 33.6029 68.6211 33.6881C68.5353 33.7676 68.4342 33.8289 68.3239 33.8683C68.2137 33.9076 68.0967 33.9243 67.9799 33.9171C67.865 33.9242 67.75 33.9071 67.6422 33.867C67.5344 33.8268 67.4362 33.7646 67.3539 33.6843C67.1984 33.5096 67.1188 33.2803 67.1325 33.0468V8.84996C67.1158 8.73396 67.126 8.61568 67.1624 8.50429C67.1988 8.39289 67.2604 8.29137 67.3423 8.20758C67.4243 8.1238 67.5244 8.06001 67.6349 8.02114C67.7455 7.98228 67.8635 7.96939 67.9799 7.98347C68.0982 7.96479 68.2194 7.97423 68.3334 8.01105C68.4474 8.04786 68.5512 8.11101 68.6363 8.19538C68.7214 8.27974 68.7855 8.38296 68.8233 8.49668C68.8611 8.6104 68.8716 8.73143 68.854 8.84996V20.0953H75.8241Z" fill="#161A1E" stroke="#161A1E" stroke-width="0.6"/>
<path fill-rule="evenodd" clip-rule="evenodd" d="M21.0163 41C18.3506 40.9953 15.712 40.4653 13.2521 39.4405C13.1019 39.3843 12.9423 39.3187 12.7826 39.2438C12.6277 39.1735 12.4681 39.0892 12.3132 39.0002C11.5069 38.6724 10.7349 38.2661 10.0084 37.7873C9.21487 37.2663 8.46735 36.6787 7.7739 36.0311L7.16365 35.441C7.07466 35.3926 7.00015 35.3215 6.94771 35.2349L6.8773 35.1553C6.0547 34.3428 5.3025 33.4624 4.62876 32.5233C3.15631 30.3928 2.08572 28.0122 1.46954 25.4984C1.2105 24.4069 1.05335 23.2938 1.00011 22.1733V21.2367C0.996491 20.094 1.07966 18.9527 1.24891 17.8226C1.42148 16.6891 1.69483 15.5732 2.06571 14.4881C2.06318 14.4757 2.06318 14.463 2.06571 14.4506C2.12394 14.3217 2.17258 14.1886 2.21123 14.0526C2.25659 13.8915 2.31629 13.7347 2.38961 13.5842L2.55391 13.2564C3.01892 12.1467 3.58293 11.0808 4.23914 10.0718C4.91222 9.04448 5.6757 8.07904 6.52054 7.18692C6.58716 7.11888 6.65769 7.05477 6.73178 6.9949L6.85852 6.90124C6.91578 6.84235 6.96909 6.77977 7.01813 6.71391C7.08385 6.63585 7.15426 6.55624 7.22937 6.47506C9.11628 4.72009 11.3084 3.32345 13.698 2.3538C16.0297 1.44495 18.5131 0.985674 21.0163 1.00034C23.5428 1.00173 26.0463 1.47838 28.3957 2.40532C30.753 3.33892 32.9149 4.70325 34.7705 6.42823C34.8428 6.50177 34.9103 6.57999 34.9723 6.66239C35.024 6.72327 35.0756 6.78884 35.1366 6.84972C35.1874 6.87852 35.2346 6.9131 35.2774 6.95275C35.3338 7.00427 35.4042 7.06515 35.484 7.14477C36.3244 8.03662 37.0846 9.00039 37.756 10.025C38.4165 11.0339 38.9822 12.1015 39.4459 13.2143L39.4976 13.3173C39.6201 13.5401 39.7177 13.7757 39.7886 14.0198C39.7886 14.0853 39.8262 14.1556 39.8496 14.2212C39.8778 14.2914 39.906 14.357 39.9388 14.4225V14.446C40.306 15.5318 40.5777 16.6475 40.7509 17.7804C40.9223 18.9103 41.0055 20.0518 40.9997 21.1945V22.1546C40.9441 23.2702 40.787 24.3784 40.5303 25.4657C39.5067 29.8692 37.0229 33.7991 33.4812 36.6185C29.9395 39.4379 25.5473 40.9818 21.0163 41ZM7.27631 6.40013H7.54388C7.50697 6.36754 7.45938 6.34954 7.41009 6.34954C7.3608 6.34954 7.31322 6.36754 7.27631 6.40013ZM31.1841 12.0903L33.8269 7.47728C33.3944 7.05251 32.9383 6.65224 32.4609 6.27837C32.0517 5.95463 31.6255 5.65291 31.1841 5.3745V12.0903ZM31.1841 18.1364L38.3099 14.0385C37.8806 12.994 37.3624 11.9881 36.7608 11.0319C36.1946 10.1344 35.5506 9.28817 34.8362 8.50291L31.1841 14.8955V18.1364ZM31.1841 20.9931H39.6947C39.6897 20.0211 39.6144 19.0507 39.4694 18.0895C39.3227 17.1445 39.095 16.2138 38.7887 15.3077L31.1841 19.7334V21.0166V20.9931ZM31.1841 23.5643L38.4038 27.7464C38.7458 26.8853 39.0204 25.9991 39.2253 25.0957C39.4276 24.187 39.5656 23.2652 39.6384 22.3372H31.1888V23.5643H31.1841ZM31.1841 28.4301L34.348 34.0079C35.0553 33.2961 35.7022 32.527 36.282 31.7084C36.8804 30.8535 37.408 29.9514 37.8593 29.0109L31.1841 25.1893V28.4301ZM31.1841 36.6071C31.9303 36.1012 32.6451 35.5507 33.3246 34.9586L31.1841 31.212V36.5931V36.6071ZM10.8486 31.2354L8.71275 34.982C9.39076 35.5624 10.1041 36.1005 10.8486 36.5931V31.2354ZM10.8486 25.1893L4.17811 29.0109C4.62585 29.9533 5.15353 30.8557 5.75538 31.7084C6.33232 32.5292 6.97941 33.2985 7.6894 34.0079L10.8486 28.4863V25.2081V25.1893ZM10.8486 22.3372H2.399C2.4718 23.2652 2.60983 24.187 2.81209 25.0957C3.01148 25.9999 3.27983 26.8876 3.6148 27.7511L10.8345 23.6158V22.3372H10.8486ZM10.8486 19.7099L3.24865 15.3077C2.94297 16.214 2.71526 17.1446 2.56799 18.0895C2.42222 19.0506 2.34848 20.0211 2.34736 20.9931H10.8486V19.7334V19.7099ZM10.8486 14.8394L7.19651 8.49354C6.48364 9.27891 5.8412 10.1251 5.27656 11.0225C4.67528 11.9796 4.15552 12.9854 3.72277 14.0291L10.8486 18.127V14.8487V14.8394ZM10.8486 5.39323C10.4121 5.68828 9.98489 5.99269 9.5671 6.32988C9.09219 6.69151 8.63919 7.0809 8.21046 7.49601L10.8486 12.109V5.39323ZM21.6454 17.284C21.8087 17.3339 21.9661 17.4014 22.1148 17.4854C22.2806 17.5809 22.4258 17.7083 22.542 17.8601C22.7804 18.092 22.9675 18.3712 23.0912 18.6796C23.1764 18.9055 23.2178 19.1455 23.2132 19.3868C23.6667 19.3995 24.1062 19.5461 24.476 19.8083C24.8405 20.1038 25.1206 20.4898 25.2881 20.9276H29.7664V5.62271C29.7523 5.25517 29.6405 4.89797 29.4425 4.58771C29.2765 4.32817 29.021 4.13825 28.7243 4.05382C28.6476 4.03062 28.5736 3.99922 28.5037 3.96016L28.3722 3.89927C28.3462 3.89965 28.3203 3.89487 28.2962 3.88523C28.272 3.87558 28.25 3.86125 28.2314 3.84307C28.2097 3.84703 28.1874 3.84703 28.1657 3.84307C27.1229 3.40983 26.0437 3.06974 24.9407 2.82681C23.8589 2.59291 22.7601 2.4457 21.6548 2.38658V17.284H21.6454ZM12.2569 20.9369H16.6131C16.7671 20.5111 17.0369 20.1365 17.3924 19.8551C17.7715 19.5574 18.2384 19.3928 18.7209 19.3868C18.7354 18.9325 18.884 18.4927 19.148 18.1223C19.4339 17.7487 19.8195 17.4631 20.2606 17.2981V2.40532C18.0522 2.45549 15.8745 2.93263 13.8482 3.81029H13.7637L13.4821 3.93674L13.0127 4.15685C12.7543 4.34444 12.5542 4.6009 12.4353 4.89681C12.3185 5.20802 12.2627 5.53872 12.271 5.87092V20.9369H12.2569ZM21.6454 25.9714V39.5997C22.9102 39.5757 24.1689 39.4187 25.4008 39.1314C26.6755 38.8203 27.9102 38.3646 29.081 37.7732C29.2885 37.6076 29.4566 37.3983 29.5735 37.1603C29.6903 36.9222 29.753 36.6614 29.757 36.3964V22.3466H25.3163C25.16 22.7724 24.8886 23.1469 24.5323 23.4284C24.1588 23.7198 23.7014 23.884 23.2273 23.8968C23.219 24.4406 23.0042 24.9611 22.6265 25.3533C22.3675 25.6312 22.0456 25.8432 21.6876 25.9714H21.6454ZM20.2371 25.9714C19.9034 25.8586 19.6 25.6712 19.3499 25.4235C18.937 25.0114 18.6998 24.4559 18.688 23.8733C18.4388 23.8653 18.1921 23.8212 17.9557 23.7422C17.6555 23.6306 17.3843 23.4529 17.1624 23.2224C17.0139 23.0876 16.8886 22.9294 16.7915 22.754C16.7125 22.6191 16.648 22.4763 16.5991 22.3279H12.2522V36.1247C12.2438 36.4431 12.2931 36.7604 12.3977 37.0614C12.5035 37.3414 12.6917 37.583 12.9376 37.7545C15.2085 38.9111 17.7116 39.5418 20.2606 39.5997V25.9761L20.2371 25.9714ZM21.7111 18.703C21.3215 18.3143 20.5516 18.2066 20.2183 18.703C20.1136 18.7974 20.03 18.9127 19.9727 19.0414C19.9154 19.17 19.8858 19.3092 19.8858 19.45C19.8858 19.5908 19.9154 19.73 19.9727 19.8587C20.03 19.9873 20.1136 20.1026 20.2183 20.197C20.3075 20.375 20.439 20.7684 20.162 20.8573C19.9429 21.1539 19.7223 21.1539 19.5001 20.8573C18.2186 19.9441 17.0826 21.4849 18.0026 22.4028C18.2107 22.5821 18.4764 22.6808 18.7514 22.6808C19.0263 22.6808 19.2921 22.5821 19.5001 22.4028C19.7207 22.1452 19.9695 22.1499 20.2183 22.4028C20.2893 22.4992 20.3275 22.6157 20.3275 22.7353C20.3275 22.8549 20.2893 22.9714 20.2183 23.0678C19.8287 23.4565 19.716 24.2246 20.2183 24.5571C20.2993 24.6694 20.408 24.759 20.5338 24.8172C20.6596 24.8755 20.7983 24.9004 20.9365 24.8896C21.1466 24.8864 21.3513 24.8225 21.5256 24.7054C21.6999 24.5884 21.8364 24.4233 21.9184 24.2303C22.0005 24.0374 22.0246 23.8248 21.9878 23.6184C21.951 23.412 21.8548 23.2207 21.7111 23.0678C21.6596 23.029 21.6178 22.9787 21.589 22.921C21.5602 22.8633 21.5452 22.7998 21.5452 22.7353C21.5452 22.6709 21.5602 22.6073 21.589 22.5496C21.6178 22.4919 21.6596 22.4417 21.7111 22.4028C21.9364 22.1078 22.1805 22.1078 22.3777 22.4028C23.5465 23.2364 24.767 22.0328 23.9268 20.8573C23.7077 20.6801 23.4342 20.5834 23.1522 20.5834C22.8702 20.5834 22.5967 20.6801 22.3777 20.8573C22.157 21.1524 21.9364 21.1524 21.7111 20.8573C21.6031 20.8199 21.5468 20.7121 21.5468 20.5248C21.5507 20.462 21.5672 20.4005 21.5955 20.3442C21.6237 20.2879 21.663 20.2378 21.7111 20.197C21.8937 19.993 21.9966 19.7302 22.001 19.4567C22.0053 19.1832 21.9107 18.9173 21.7346 18.7077L21.7111 18.703Z" fill="#161A1E" stroke="#161A1E" stroke-width="0.6"/>
</svg>
