<svg width="13" height="17" viewBox="0 0 13 17" fill="none" xmlns="http://www.w3.org/2000/svg">
<path d="M11.5 5C11.5 3.619 10.94 2.369 10.036 1.465C9.131 0.56 7.881 0 6.5 0C5.119 0 3.869 0.56 2.964 1.465C2.06 2.369 1.5 3.619 1.5 5C1.5 6.381 2.06 7.631 2.964 8.535C3.869 9.44 5.119 10 6.5 10C7.881 10 9.131 9.44 10.036 8.535C10.94 7.631 11.5 6.381 11.5 5Z" fill="#161A1E"/>
<path d="M0.5 15C0.5 16 2.75 17 6.5 17C10.018 17 12.5 16 12.5 15C12.5 13 10.146 11 6.5 11C2.75 11 0.5 13 0.5 15Z" fill="#161A1E"/>
</svg>
