<svg width="15" height="17" viewBox="0 0 15 17" fill="none" xmlns="http://www.w3.org/2000/svg">
<path d="M11.7857 5.3125V4.25C11.7857 1.90652 9.86314 0 7.5 0C5.13683 0 3.21429 1.90652 3.21429 4.25V5.3125H0V14.3438C0 15.8108 1.19923 17 2.67857 17H12.3214C13.8008 17 15 15.8108 15 14.3438V5.3125H11.7857ZM5.35714 4.25C5.35714 3.07826 6.31842 2.125 7.5 2.125C8.68158 2.125 9.64286 3.07826 9.64286 4.25V5.3125H5.35714V4.25ZM10.7143 8.23438C10.2705 8.23438 9.91071 7.87761 9.91071 7.4375C9.91071 6.99739 10.2705 6.64062 10.7143 6.64062C11.1581 6.64062 11.5179 6.99739 11.5179 7.4375C11.5179 7.87761 11.1581 8.23438 10.7143 8.23438ZM4.28571 8.23438C3.84191 8.23438 3.48214 7.87761 3.48214 7.4375C3.48214 6.99739 3.84191 6.64062 4.28571 6.64062C4.72952 6.64062 5.08929 6.99739 5.08929 7.4375C5.08929 7.87761 4.72952 8.23438 4.28571 8.23438Z" fill="#161A1E"/>
</svg>
